SplineFontDB: 3.2
FontName: SingNote.sg-icons
FullName: NOT FOR USE AS FONT
FamilyName: NONE
Weight: Regular
Copyright: Copyright (c) 2025, 05524F\nYou are not supposed to be using this font, it is just a collection of icons and cannot even display English letters. The font used to display text in 05524F apps is SingScript.sg, not this.
UComments: "2025-3-8: Created with FontForge (http://fontforge.org)"
Version: 1
ItalicAngle: 0
UnderlinePosition: -90
UnderlineWidth: 45
Ascent: 600
Descent: 300
InvalidEm: 0
LayerCount: 2
Layer: 0 0 "Back" 1
Layer: 1 0 "Fore" 0
XUID: [1021 768 647112374 8752]
StyleMap: 0x0000
FSType: 0
OS2Version: 0
OS2_WeightWidthSlopeOnly: 0
OS2_UseTypoMetrics: 1
CreationTime: 1741455948
ModificationTime: 1746572941
OS2TypoAscent: 0
OS2TypoAOffset: 1
OS2TypoDescent: 0
OS2TypoDOffset: 1
OS2TypoLinegap: 81
OS2WinAscent: 0
OS2WinAOffset: 1
OS2WinDescent: 0
OS2WinDOffset: 1
HheadAscent: 0
HheadAOffset: 1
HheadDescent: 0
HheadDOffset: 1
MarkAttachClasses: 1
DEI: 91125
Encoding: Custom
UnicodeInterp: none
NameList: AGL For New Fonts
DisplaySize: -48
AntiAlias: 1
FitToEm: 0
WidthSeparation: 50
WinInfo: 0 27 9
BeginPrivate: 0
EndPrivate
Grid
450 -300 m 24
 450 51 450 249 450 600 c 1048
0 150 m 24
 351 150 549 150 900 150 c 1048
767 600 m 24
 767 249 767 51 767 -300 c 1048
800 600 m 24
 800 249 800 51 800 -300 c 1048
133 600 m 24
 133 249 133 51 133 -300 c 1048
100 -300 m 24
 100 51 100 249 100 600 c 1048
0 -167 m 24
 351 -167 549 -167 900 -167 c 1048
0 467 m 24
 351 467 549 467 900 467 c 1048
0 -200 m 24
 351 -200 549 -200 900 -200 c 1048
0 500 m 24
 351 500 549 500 900 500 c 1048
EndSplineSet
BeginChars: 256 22

StartChar: uniE010
Encoding: 16 57360 0
Width: 900
Flags: W
HStem: -200 67<201 621> 384 67<201 486.515>
VStem: 134 67<-133 384> 623 67<-133 196.515>
LayerCount: 2
Fore
SplineSet
168 -200 m 2
 149 -200 134 -184 134 -166 c 2
 134 417 l 2
 134 435 150 451 168 451 c 2
 456 452 l 2
 474 452 490 436 490 418 c 0
 490 400 474 385 456 385 c 2
 201 384 l 1
 201 -133 l 1
 621 -133 l 1
 623 166 l 2
 623 184 638 200 656 200 c 0
 674 200 690 184 690 166 c 0
 688 -166 688 -166 688 -166 c 2
 688 -184 672 -200 654 -200 c 2
 168 -200 l 2
373 71 m 0
 357 71 339 84 339 106 c 0
 339 107 l 0
 339 119 344 152 354 207 c 0
 355 214 358 220 363 225 c 2
 629 491 l 2
 636 498 644 500 653 500 c 0
 661 500 670 497 676 491 c 2
 753 418 l 2
 760 411 763 403 763 394 c 0
 763 386 760 377 754 371 c 0
 494 103 494 103 494 103 c 2
 489 98 483 94 477 93 c 0
 377 71 377 71 373 71 c 0
682 393 m 1
 654 420 l 1
 635 401 l 1
 664 374 l 1
 682 393 l 1
453 157 m 1
 618 326 l 1
 587 354 l 1
 418 185 l 1
 416 176 414 162 412 148 c 1
 453 157 l 1
EndSplineSet
Validated: 1
EndChar

StartChar: uniE011
Encoding: 17 57361 1
Width: 900
Flags: W
HStem: -200 66<168 733> 279 67<169 733> 370 68<386.282 733> 431 66<169 335.629>
VStem: 100 69<-134 279 346 433> 733 67<-134 279 346 370>
LayerCount: 2
Fore
SplineSet
800 -142 m 6xec
 800 -181 770 -200 743 -200 c 2
 158 -200 l 2
 114 -200 100 -156 100 -141 c 0
 102 448 103 449 103 451 c 0
 107 478 130 500 161 500 c 0
 161 500 162 500 332 497 c 0xdc
 336 497 355 496 375 473 c 0
 385 462 390 451 395 442 c 0
 396 440 397 439 398 438 c 1
 743 438 l 2
 781 438 801 410 801 381 c 6
 800 -142 l 6xec
384 370 m 0xec
 359 370 346 393 337 409 c 0
 331 420 327 427 323 431 c 1xdc
 169 433 l 1
 169 346 l 1
 733 346 l 1
 733 370 l 1
 588 370 529 370 384 370 c 0xec
733 -134 m 1
 733 279 l 1
 169 279 l 1
 168 -134 l 1
 733 -134 l 1
EndSplineSet
Validated: 1
EndChar

StartChar: uniE012
Encoding: 18 57362 2
Width: 900
Flags: W
HStem: -200 66<168 733> 28 66<347 668.876> 279 67<169 733> 370 68<386.282 733> 431 66<169 335.629>
VStem: 100 69<-134 279 346 433> 733 67<-134 279 346 370>
LayerCount: 2
Fore
SplineSet
800 -142 m 6xf6
 800 -181 770 -200 743 -200 c 6
 158 -200 l 6
 114 -200 100 -156 100 -141 c 4
 102 448 103 449 103 451 c 4
 107 478 130 500 161 500 c 4
 161 500 162 500 332 497 c 4xee
 336 497 355 496 375 473 c 4
 385 462 390 451 395 442 c 4
 396 440 397 439 398 438 c 5
 743 438 l 6
 781 438 801 410 801 381 c 6
 800 -142 l 6xf6
384 370 m 4xf6
 359 370 346 393 337 409 c 4
 331 420 327 427 323 431 c 5xee
 169 433 l 5
 169 346 l 5
 733 346 l 5
 733 370 l 5
 588 370 529 370 384 370 c 4xf6
733 -134 m 5
 733 279 l 5
 169 279 l 5
 168 -134 l 5
 733 -134 l 5
384 211 m 0
 402 211 418 195 418 177 c 0
 418 167 414 159 407 153 c 0
 387 134 365 112 347 94 c 1
 638 94 l 2
 656 94 672 79 672 61 c 0
 672 43 656 28 638 28 c 2
 347 28 l 1
 365 10 388 -12 408 -31 c 0
 415 -37 419 -45 419 -55 c 0
 419 -73 403 -89 385 -89 c 0
 376 -89 368 -85 362 -79 c 0
 266 11 244 36 244 61 c 0
 244 88 269 115 361 201 c 0
 367 207 375 211 384 211 c 0
EndSplineSet
Validated: 1
EndChar

StartChar: uniE013
Encoding: 19 57363 3
Width: 900
Flags: W
HStem: -200 66<168 733> -110 163<557.485 616.897> -95 67<399.806 494.227> -18 68<461.485 492 492.001 495> 84 164<300.553 355.953> 86 67<414 417.998 418 448.515> 171 67<415.149 520.025> 279 67<169 733> 370 68<386.282 733> 431 66<169 335.629>
VStem: 100 69<-134 279 346 433> 292 160<92.1635 150.515> 293 67<197 213.993 214 244.515> 458 167<-14.5146 44.8945> 554 68<-106.515 -59> 733 67<-134 279 346 370>
LayerCount: 2
Fore
SplineSet
800 -142 m 2x81a1
 800 -181 770 -200 743 -200 c 2
 158 -200 l 2
 114 -200 100 -156 100 -141 c 0
 102 448 103 449 103 451 c 0
 107 478 130 500 161 500 c 2
 161 500 162 500 332 497 c 0x8161
 336 497 355 496 375 473 c 0
 385 462 390 451 395 442 c 0
 396 440 397 439 398 438 c 2
 743 438 l 2
 781 438 801 410 801 381 c 2
 800 -142 l 2x81a1
384 370 m 0x81a1
 359 370 346 393 337 409 c 0
 331 420 327 427 323 431 c 2x8161
 169 433 l 1
 169 346 l 1
 733 346 l 1
 733 370 l 1
 588 370 529 370 384 370 c 0x81a1
733 -134 m 1
 733 279 l 1
 169 279 l 1
 168 -134 l 1
 733 -134 l 1
293 195 m 0x8929
 293 205 292 214 292 214 c 2x8931
 292 232 308 248 326 248 c 0
 344 248 358 234 359 216 c 0
 359 210 360 203 360 197 c 1x8929
 388 220 461 238 468 238 c 0
 531 238 588 198 627 125 c 0
 629 120 631 115 631 109 c 0
 631 91 615 75 597 75 c 0
 584 75 573 82 567 93 c 0
 536 151 499 171 467 171 c 0
 450 171 432 164 414 153 c 1
 415 153 418 154 418 154 c 1
 436 154 452 138 452 120 c 0
 452 102 436 86 418 86 c 0x8731
 416 86 349 84 348 84 c 0
 331 84 300 84 294 123 c 0
 293 132 292 140 292 149 c 0x8931
 292 163 293 179 293 195 c 0x8929
625 -5 m 0xc135
 625 -26 622 -55 622 -76 c 0
 622 -94 606 -110 588 -110 c 0
 570 -110 554 -94 554 -76 c 0xc123
 554 -70 555 -65 555 -59 c 1
 527 -80 493 -95 454 -95 c 0
 397 -95 340 -62 292 9 c 0
 288 14 286 21 286 28 c 0
 286 46 302 62 320 62 c 0
 332 62 342 56 348 47 c 0
 389 -13 425 -28 454 -28 c 0
 468 -28 482 -24 495 -17 c 1
 494 -17 492 -18 492 -18 c 1
 474 -18 458 -2 458 16 c 0
 458 34 474 50 492 50 c 0xb135
 516 50 547 53 569 53 c 0
 583 53 615 54 623 18 c 0
 625 10 625 2 625 -5 c 0xc135
EndSplineSet
Validated: 33
EndChar

StartChar: uniE014
Encoding: 20 57364 4
Width: 900
Flags: W
HStem: -201 67<353.082 546.278> 434 67<342.285 545.554>
VStem: 100 66<51.3786 255.946> 734 66<54.5822 246.59>
LayerCount: 2
Fore
SplineSet
166 158 m 0
 166 -3 292 -134 451 -134 c 0
 604 -134 734 -3 734 150 c 0
 734 305 604 432 448 434 c 0
 447 434 445 434 444 434 c 0
 291 434 166 311 166 158 c 0
444 501 m 0
 637 501 800 345 800 150 c 0
 800 -40 641 -201 451 -201 c 0
 254 -201 100 -39 100 158 c 0
 100 349 255 501 444 501 c 0
285 286 m 0
 285 304 300 319 318 319 c 0
 327 319 336 316 342 310 c 2
 451 200 l 1
 560 310 l 2
 566 316 575 319 584 319 c 0
 602 319 617 304 617 286 c 0
 617 277 614 268 608 262 c 2
 498 153 l 1
 608 44 l 2
 614 38 617 29 617 20 c 0
 617 2 602 -13 584 -13 c 0
 575 -13 566 -10 560 -4 c 2
 451 106 l 1
 342 -4 l 2
 336 -10 327 -13 318 -13 c 0
 300 -13 285 2 285 20 c 0
 285 29 288 38 294 44 c 2
 404 153 l 1
 294 262 l 2
 288 268 285 277 285 286 c 0
EndSplineSet
Validated: 1
EndChar

StartChar: uniE015
Encoding: 21 57365 5
Width: 900
HStem: 117 67<229 419 487 678>
VStem: 420 67<-71 117 185 370>
LayerCount: 2
Fore
SplineSet
390 330 m 0
 390 330 381 319 364 319 c 0
 346 319 331 334 331 352 c 0
 331 360 333 368 338 374 c 0
 379 422 398 475 427 493 c 0
 433 497 441 500 452 500 c 0
 482 500 499 474 526 435 c 0
 539 415 554 394 571 375 c 0
 576 369 579 361 579 353 c 0
 579 335 564 320 546 320 c 0
 529 320 521 331 521 331 c 0
 508 346 496 362 486 376 c 1
 486 306 486 245 486 185 c 1
 528 185 571 185 617 185 c 0
 637 185 657 185 678 185 c 1
 664 195 650 206 635 219 c 0
 628 225 624 234 624 244 c 0
 624 262 639 277 657 277 c 0
 665 277 673 274 679 269 c 0
 726 228 777 206 794 175 c 0
 798 169 800 161 800 151 c 0
 800 116 770 95 731 68 c 0
 714 56 696 44 680 30 c 0
 674 25 666 23 658 23 c 0
 640 23 625 38 625 56 c 0
 625 73 636 82 636 82 c 0
 653 96 670 108 685 118 c 1
 662 118 639 118 617 118 c 0
 572 118 529 118 487 118 c 1
 487 57 487 -7 487 -78 c 1
 500 -60 511 -44 523 -29 c 0
 529 -21 538 -16 549 -16 c 0
 567 -16 583 -32 583 -50 c 0
 583 -58 580 -65 575 -71 c 0
 536 -121 508 -173 481 -192 c 0
 475 -196 467 -200 454 -200 c 0
 428 -200 413 -179 384 -137 c 0
 370 -117 354 -93 337 -72 c 0
 332 -66 329 -59 329 -51 c 0
 329 -33 345 -17 363 -17 c 0
 373 -17 383 -22 389 -30 c 0
 400 -44 411 -58 420 -71 c 1
 420 -3 420 58 420 117 c 1
 376 117 331 117 283 117 c 0
 265 117 248 117 229 117 c 1
 245 106 261 94 277 80 c 0
 284 74 289 65 289 55 c 0
 289 37 273 21 255 21 c 0
 247 21 239 25 233 30 c 0
 184 72 127 99 108 126 c 0
 104 131 100 139 100 151 c 0
 100 180 126 199 169 228 c 0
 189 241 211 256 230 272 c 0
 236 277 243 280 251 280 c 0
 269 280 285 264 285 246 c 0
 285 236 280 226 272 220 c 0
 256 207 239 195 224 184 c 1
 244 184 283 184 283 184 c 0
 331 184 375 184 419 184 c 1
 419 243 419 303 419 370 c 1
 410 357 401 343 390 330 c 0
EndSplineSet
Validated: 1
EndChar

StartChar: uniE016
Encoding: 22 57366 6
Width: 900
Flags: W
VStem: 416 68<-196.707 397>
LayerCount: 2
Fore
SplineSet
224 192 m 0
 206 192 191 207 191 225 c 0
 191 234 194 242 200 248 c 0
 231 281 263 321 295 359 c 0
 380 461 415 500 450 500 c 0
 490 500 530 454 609 357 c 0
 640 319 671 280 701 248 c 0
 707 242 710 234 710 225 c 0
 710 207 695 192 677 192 c 0
 667 192 659 195 653 202 c 0
 592 267 531 350 484 401 c 1
 484 -167 l 2
 484 -185 468 -200 450 -200 c 0
 432 -200 416 -185 416 -167 c 2
 416 397 l 1
 371 348 305 263 248 202 c 0
 242 195 234 192 224 192 c 0
EndSplineSet
Validated: 1
EndChar

StartChar: uniE017
Encoding: 23 57367 7
Width: 900
Flags: W
VStem: 416 68<-97 496.707>
LayerCount: 2
Fore
SplineSet
676 108 m 0
 694 108 709 93 709 75 c 0
 709 66 706 58 700 52 c 0
 669 19 637 -21 605 -59 c 0
 520 -161 485 -200 450 -200 c 0
 410 -200 370 -154 291 -57 c 0
 260 -19 229 20 199 52 c 0
 193 58 190 66 190 75 c 0
 190 93 205 108 223 108 c 0
 233 108 241 105 247 98 c 0
 308 33 369 -50 416 -101 c 1
 416 467 l 2
 416 485 432 500 450 500 c 0
 468 500 484 485 484 467 c 2
 484 -97 l 1
 529 -48 595 37 652 98 c 0
 658 105 666 108 676 108 c 0
EndSplineSet
Validated: 1
EndChar

StartChar: uniE018
Encoding: 24 57368 8
Width: 900
Flags: W
HStem: 116 68<203 796.707>
LayerCount: 2
Fore
SplineSet
408 -76 m 0
 408 -94 393 -109 375 -109 c 0
 366 -109 358 -106 352 -100 c 0
 319 -69 279 -37 241 -5 c 0
 139 80 100 115 100 150 c 0
 100 190 146 230 243 309 c 0
 281 340 320 371 352 401 c 0
 358 407 366 410 375 410 c 0
 393 410 408 395 408 377 c 0
 408 367 405 359 398 353 c 0
 333 292 250 231 199 184 c 1
 767 184 l 2
 785 184 800 168 800 150 c 0
 800 132 785 116 767 116 c 2
 203 116 l 1
 252 71 337 5 398 -52 c 0
 405 -58 408 -66 408 -76 c 0
EndSplineSet
Validated: 1
EndChar

StartChar: uniE019
Encoding: 25 57369 9
Width: 900
Flags: W
HStem: 116 68<103.293 697>
LayerCount: 2
Fore
SplineSet
492 376 m 0
 492 394 507 409 525 409 c 0
 534 409 542 406 548 400 c 0
 581 369 621 337 659 305 c 0
 761 220 800 185 800 150 c 0
 800 110 754 70 657 -9 c 0
 619 -40 580 -71 548 -101 c 0
 542 -107 534 -110 525 -110 c 0
 507 -110 492 -95 492 -77 c 0
 492 -67 495 -59 502 -53 c 0
 567 8 650 69 701 116 c 1
 133 116 l 2
 115 116 100 132 100 150 c 0
 100 168 115 184 133 184 c 2
 697 184 l 1
 648 229 563 295 502 352 c 0
 495 358 492 366 492 376 c 0
EndSplineSet
Validated: 1
EndChar

StartChar: uniE01A
Encoding: 26 57370 10
Width: 900
Flags: W
HStem: -68 67<299.12 472.08> 182 66<249.124 350 416 516.876> 434 66<292.723 462.601>
VStem: 100 66<128.769 307.913> 350 66<76.9501 182 248 354.876> 601 67<124.596 297.678>
LayerCount: 2
Fore
SplineSet
601 212 m 0
 601 333 498 434 377 434 c 0
 262 434 166 337 166 219 c 0
 166 100 260 2 378 -1 c 0
 380 -1 384 -1 384 -1 c 0
 501 -1 601 95 601 212 c 0
377 500 m 0
 534 500 668 371 668 212 c 0
 668 191 666 114 607 40 c 1
 791 -143 l 2
 797 -149 800 -158 800 -167 c 0
 800 -185 785 -200 767 -200 c 0
 758 -200 749 -197 743 -191 c 2
 560 -7 l 1
 511 -45 450 -68 384 -68 c 0
 226 -68 100 62 100 219 c 0
 100 373 224 500 377 500 c 0
280 182 m 2
 262 182 246 197 246 215 c 0
 246 233 262 248 280 248 c 2
 350 248 l 1
 350 324 l 2
 350 342 365 358 383 358 c 0
 401 358 416 342 416 324 c 2
 416 248 l 1
 486 248 l 2
 504 248 520 233 520 215 c 0
 520 197 504 182 486 182 c 2
 416 182 l 1
 416 107 l 2
 416 89 401 74 383 74 c 0
 365 74 350 89 350 107 c 2
 350 182 l 1
 280 182 l 2
EndSplineSet
Validated: 1
EndChar

StartChar: uniE01B
Encoding: 27 57371 11
Width: 900
Flags: W
HStem: -68 67<299.12 472.08> 182 66<249.124 516.876> 434 66<292.723 462.601>
VStem: 100 66<128.769 307.913> 601 67<124.596 297.678>
LayerCount: 2
Fore
SplineSet
601 212 m 0
 601 333 498 434 377 434 c 0
 262 434 166 337 166 219 c 0
 166 100 260 2 378 -1 c 0
 380 -1 384 -1 384 -1 c 0
 501 -1 601 95 601 212 c 0
377 500 m 0
 534 500 668 371 668 212 c 0
 668 191 666 114 607 40 c 1
 791 -143 l 2
 797 -149 800 -158 800 -167 c 0
 800 -185 785 -200 767 -200 c 0
 758 -200 749 -197 743 -191 c 2
 560 -7 l 1
 511 -45 450 -68 384 -68 c 0
 226 -68 100 62 100 219 c 0
 100 373 224 500 377 500 c 0
280 182 m 0
 262 182 246 197 246 215 c 0
 246 233 262 248 280 248 c 0
 486 248 l 0
 504 248 520 233 520 215 c 0
 520 197 504 182 486 182 c 0
 280 182 l 0
EndSplineSet
Validated: 1
EndChar

StartChar: uniE01C
Encoding: 28 57372 12
Width: 900
LayerCount: 2
Fore
SplineSet
133 -200 m 4
 115 -200 100 -186 100 -167 c 4
 100 -163 116 -51 143 18 c 4
 145 23 146 26 161 42 c 4
 186 70 248 132 347 230 c 4
 473 355 613 491 613 491 c 4
 619 497 627 500 636 500 c 4
 683 500 781 416 796 371 c 4
 798 365 800 358 800 349 c 4
 800 340 797 332 791 326 c 4
 733 264 402 -87 354 -128 c 4
 351 -130 349 -133 343 -136 c 4
 308 -154 267 -179 227 -179 c 4
 226 -179 147 -200 133 -200 c 4
727 356 m 5
 714 374 686 401 660 419 c 4
 655 423 649 427 645 429 c 5
 630 415 605 390 574 360 c 5
 655 279 l 5
 686 312 712 340 727 356 c 5
311 -77 m 5
 355 -36 473 86 609 230 c 5
 527 313 l 5
 416 204 267 58 217 4 c 5
 205 -8 l 5
 191 -40 181 -87 174 -123 c 5
 215 -113 272 -97 311 -77 c 5
EndSplineSet
Validated: 1
EndChar

StartChar: uniE01D
Encoding: 29 57373 13
Width: 900
HStem: -159 67<265.24 433.672>
LayerCount: 2
Fore
SplineSet
311 150 m 0
 177 19 178 19 173 15 c 1
 186 2 261 -70 285 -90 c 1
 304 -91 355 -92 389 -92 c 0
 399 -92 408 -92 414 -92 c 0
 424 -82 447 -60 484 -23 c 1
 476 -15 313 148 311 150 c 0
531 25 m 1
 611 106 726 221 728 223 c 0
 722 232 595 359 561 391 c 1
 559 393 l 1
 557 391 496 331 359 197 c 1
 361 195 522 34 531 25 c 1
559 462 m 0
 582 462 598 447 603 443 c 0
 605 441 710 340 771 275 c 0
 776 270 778 270 782 263 c 0
 782 263 783 261 785 259 c 0
 788 255 800 243 800 222 c 0
 800 204 791 191 778 178 c 0
 758 158 483 -122 452 -148 c 0
 441 -158 434 -159 389 -159 c 0
 343 -159 280 -157 270 -156 c 0
 258 -155 254 -154 196 -100 c 0
 163 -69 128 -35 124 -31 c 0
 117 -25 99 -6 99 16 c 0
 99 22 101 41 120 57 c 0
 121 58 114 51 264 198 c 0
 375 307 505 435 516 444 c 0
 524 451 538 462 559 462 c 0
EndSplineSet
Validated: 1
EndChar

StartChar: uniE01E
Encoding: 30 57374 14
Width: 900
Flags: W
HStem: -200 66<102.95 212.876 514.95 797.05> -159 67<265.24 433.672>
VStem: 100 116<-196.707 -137.293>
LayerCount: 2
Fore
SplineSet
311 150 m 0x60
 177 19 178 19 173 15 c 1
 186 2 261 -70 285 -90 c 1
 304 -91 355 -92 389 -92 c 0
 399 -92 408 -92 414 -92 c 0
 424 -82 447 -60 484 -23 c 1
 476 -15 313 148 311 150 c 0x60
531 25 m 1
 611 106 726 221 728 223 c 0
 722 232 595 359 561 391 c 1
 559 393 l 1
 557 391 496 331 359 197 c 1
 361 195 522 34 531 25 c 1
559 462 m 0
 582 462 598 447 603 443 c 0
 605 441 710 340 771 275 c 0
 776 270 778 270 782 263 c 0
 782 263 783 261 785 259 c 0
 788 255 800 243 800 222 c 0
 800 204 791 191 778 178 c 0
 758 158 483 -122 452 -148 c 0
 441 -158 434 -159 389 -159 c 0
 343 -159 280 -157 270 -156 c 0
 258 -155 254 -154 196 -100 c 0
 163 -69 128 -35 124 -31 c 0
 117 -25 99 -6 99 16 c 0
 99 22 101 41 120 57 c 0
 121 58 114 51 264 198 c 0
 375 307 505 435 516 444 c 0
 524 451 538 462 559 462 c 0
545 -200 m 2xa0
 527 -200 512 -185 512 -167 c 0
 512 -149 527 -134 545 -134 c 2
 767 -134 l 2
 785 -134 800 -149 800 -167 c 0
 800 -185 785 -200 767 -200 c 2
 545 -200 l 2xa0
133 -200 m 2
 115 -200 100 -185 100 -167 c 0
 100 -149 115 -134 133 -134 c 2
 182 -134 l 2
 200 -134 216 -149 216 -167 c 0
 216 -185 200 -200 182 -200 c 2
 133 -200 l 2
EndSplineSet
Validated: 1
EndChar

StartChar: uniE01F
Encoding: 31 57375 15
Width: 900
Flags: W
HStem: -159 67<265.24 433.672> 165 67<519.024 553>
VStem: 455 64<234.066 290.517> 551 68<113 165 232 312.988>
LayerCount: 2
Fore
SplineSet
311 150 m 0
 177 19 178 19 173 15 c 1
 186 2 261 -70 285 -90 c 1
 304 -91 355 -92 389 -92 c 0
 399 -92 408 -92 414 -92 c 0
 424 -82 447 -60 484 -23 c 1
 476 -15 313 148 311 150 c 0
559 462 m 0
 582 462 598 447 603 443 c 0
 605 441 710 340 771 275 c 0
 776 270 778 270 782 263 c 0
 782 263 783 261 785 259 c 0
 788 255 800 243 800 222 c 0
 800 204 791 191 778 178 c 0
 758 158 483 -122 452 -148 c 0
 441 -158 434 -159 389 -159 c 0
 343 -159 280 -157 270 -156 c 0
 258 -155 254 -154 196 -100 c 0
 163 -69 128 -35 124 -31 c 0
 117 -25 99 -6 99 16 c 0
 99 22 101 41 120 57 c 0
 121 58 114 51 264 198 c 0
 375 307 505 435 516 444 c 0
 524 451 538 462 559 462 c 0
522 288 m 0
 522 283 521 291 519 231 c 1
 519 231 552 232 554 232 c 2
 556 286 l 2
 556 304 571 319 589 319 c 0
 607 319 623 303 623 285 c 0
 619 113 l 1
 676 171 727 222 728 223 c 0
 722 232 595 359 561 391 c 1
 559 393 l 1
 558 392 535 369 486 321 c 1
 487 321 487 322 488 322 c 0
 506 322 522 306 522 288 c 0
455 291 m 1
 428 265 397 234 359 197 c 1
 360 196 406 150 450 106 c 1
 449 109 448 112 448 116 c 0
 448 116 455 288 455 290 c 0
 455 291 l 1
472 84 m 1
 503 54 528 28 531 25 c 1
 547 41 565 59 583 77 c 1
 565 78 551 92 551 110 c 0
 551 111 552 124 553 165 c 1
 552 165 517 164 517 164 c 0
 516 144 516 126 515 114 c 0
 514 96 500 82 482 82 c 0
 478 82 475 83 472 84 c 1
EndSplineSet
Validated: 1
EndChar

StartChar: uniE020
Encoding: 32 57376 16
Width: 900
Flags: W
HStem: -200 66<102.95 212.876 514.95 797.05> -159 67<265.24 433.672> 165 67<519.024 553>
VStem: 100 116<-196.707 -137.293> 455 64<234.066 290.517> 551 68<113 165 232 312.988>
LayerCount: 2
Fore
SplineSet
311 150 m 0x7c
 177 19 178 19 173 15 c 1
 186 2 261 -70 285 -90 c 1
 304 -91 355 -92 389 -92 c 0
 399 -92 408 -92 414 -92 c 0
 424 -82 447 -60 484 -23 c 1
 476 -15 313 148 311 150 c 0x7c
559 462 m 0
 582 462 598 447 603 443 c 0
 605 441 710 340 771 275 c 0
 776 270 778 270 782 263 c 0
 782 263 783 261 785 259 c 0
 788 255 800 243 800 222 c 0
 800 204 791 191 778 178 c 0
 758 158 483 -122 452 -148 c 0
 441 -158 434 -159 389 -159 c 0
 343 -159 280 -157 270 -156 c 0
 258 -155 254 -154 196 -100 c 0
 163 -69 128 -35 124 -31 c 0
 117 -25 99 -6 99 16 c 0
 99 22 101 41 120 57 c 0
 121 58 114 51 264 198 c 0
 375 307 505 435 516 444 c 0
 524 451 538 462 559 462 c 0
522 288 m 0
 522 283 521 291 519 231 c 1
 519 231 552 232 554 232 c 2
 556 286 l 2
 556 304 571 319 589 319 c 0
 607 319 623 303 623 285 c 0
 619 113 l 1
 676 171 727 222 728 223 c 0
 722 232 595 359 561 391 c 1
 559 393 l 1
 558 392 535 369 486 321 c 1
 487 321 487 322 488 322 c 0
 506 322 522 306 522 288 c 0
545 -200 m 2xbc
 527 -200 512 -185 512 -167 c 0
 512 -149 527 -134 545 -134 c 2
 767 -134 l 2
 785 -134 800 -149 800 -167 c 0
 800 -185 785 -200 767 -200 c 2
 545 -200 l 2xbc
133 -200 m 2
 115 -200 100 -185 100 -167 c 0
 100 -149 115 -134 133 -134 c 2
 182 -134 l 2
 200 -134 216 -149 216 -167 c 0
 216 -185 200 -200 182 -200 c 2
 133 -200 l 2
455 291 m 1
 428 265 397 234 359 197 c 1
 360 196 406 150 450 106 c 1
 449 109 448 112 448 116 c 0
 448 116 455 288 455 290 c 0
 455 291 l 1
472 84 m 1
 503 54 528 28 531 25 c 1
 547 41 565 59 583 77 c 1
 565 78 551 92 551 110 c 0
 551 111 552 124 553 165 c 1
 552 165 517 164 517 164 c 0
 516 144 516 126 515 114 c 0
 514 96 500 82 482 82 c 0
 478 82 475 83 472 84 c 1
EndSplineSet
Validated: 1
EndChar

StartChar: uniE021
Encoding: 33 57377 17
Width: 900
Flags: W
VStem: 344 67<24.2603 90> 446 66<158 232.515>
LayerCount: 2
Fore
SplineSet
727 356 m 1
 714 374 686 401 660 419 c 0
 655 423 649 427 645 429 c 1
 630 415 605 390 574 360 c 1
 655 279 l 1
 686 312 712 340 727 356 c 1
133 -200 m 0
 115 -200 100 -186 100 -167 c 0
 100 -163 116 -51 143 18 c 0
 145 23 146 26 161 42 c 0
 186 70 248 132 347 230 c 0
 473 355 613 491 613 491 c 2
 619 497 627 500 636 500 c 0
 683 500 781 416 796 371 c 0
 798 365 800 358 800 349 c 0
 800 340 797 332 791 326 c 0
 733 264 402 -87 354 -128 c 0
 351 -130 349 -133 343 -136 c 0
 308 -154 267 -179 227 -179 c 0
 226 -179 147 -200 133 -200 c 0
342 54 m 0
 342 55 344 83 344 124 c 0
 344 125 l 0
 344 128 344 130 344 133 c 1
 289 78 241 30 217 4 c 2
 205 -8 l 1
 191 -40 181 -87 174 -123 c 1
 215 -113 272 -97 311 -77 c 1
 336 -54 384 -5 445 58 c 1
 445 64 445 78 445 91 c 1
 445 91 412 90 411 90 c 0
 411 80 410 68 409 53 c 0
 408 35 394 20 376 20 c 0
 358 20 342 36 342 54 c 0
512 128 m 1
 543 160 575 194 609 230 c 1
 527 313 l 1
 491 278 451 239 412 200 c 0
 412 199 413 197 413 196 c 0
 413 194 411 177 411 157 c 1
 411 157 442 158 446 158 c 1
 446 170 446 184 447 203 c 0
 447 221 462 236 480 236 c 0
 498 236 514 220 514 202 c 0
 514 201 512 174 512 129 c 2
 512 128 l 1
EndSplineSet
Validated: 1
EndChar

StartChar: uniE022
Encoding: 34 57378 18
Width: 900
HStem: 419 67<243.29 376.582 528.382 656.289>
VStem: 97 67<186.688 331.945> 734 66<183.75 336.001>
LayerCount: 2
Fore
SplineSet
475 354 m 2
 472 350 464 342 450 342 c 0
 440 342 430 347 424 355 c 2
 424 355 405 378 392 389 c 0
 384 396 384 396 359 408 c 0
 350 412 333 419 305 419 c 0
 294 419 287 418 271 412 c 0
 247 403 240 399 221 382 c 0
 221 382 196 359 189 344 c 0
 175 315 164 290 164 248 c 0
 164 227 171 205 186 180 c 0
 206 147 223 131 248 106 c 0
 257 97 265 88 276 77 c 0
 298 53 315 47 342 20 c 0
 359 3 359 2 415 -56 c 0
 426 -67 439 -82 450 -95 c 1
 471 -70 484 -55 526 -14 c 0
 565 25 565 25 590 47 c 0
 609 64 615 70 615 70 c 0
 634 87 643 93 659 109 c 0
 683 133 685 134 693 147 c 0
 712 177 719 190 728 220 c 0
 733 237 734 244 734 264 c 0
 734 281 731 290 723 314 c 0
 716 336 712 344 698 363 c 0
 683 382 680 385 659 398 c 0
 657 399 628 416 613 416 c 0
 579 416 551 410 527 399 c 0
 527 399 510 390 497 377 c 0
 489 369 475 354 475 354 c 2
476 -168 m 0
 473 -172 464 -181 450 -181 c 0
 445 -181 433 -179 424 -168 c 0
 397 -135 385 -120 349 -83 c 0
 298 -30 289 -21 266 -3 c 0
 255 6 242 16 228 31 c 0
 218 41 209 50 200 59 c 0
 164 94 97 161 97 248 c 0
 97 250 98 252 98 254 c 0
 100 301 111 332 129 372 c 0
 138 392 160 418 177 432 c 0
 200 451 219 463 247 474 c 0
 266 482 284 486 305 486 c 0
 330 486 359 481 387 468 c 0
 417 454 426 450 450 426 c 0
 450 426 475 450 499 461 c 0
 533 476 571 484 613 484 c 0
 630 484 656 478 693 456 c 0
 728 435 767 398 788 332 c 0
 795 311 800 291 800 264 c 0
 800 242 799 223 792 200 c 0
 781 164 768 141 749 111 c 0
 737 92 729 83 707 61 c 0
 696 50 686 42 677 35 c 0
 671 30 665 26 659 20 c 0
 650 11 642 4 635 -3 c 0
 612 -24 611 -23 573 -61 c 0
 534 -99 517 -118 476 -168 c 0
EndSplineSet
Validated: 1
EndChar

StartChar: uniE023
Encoding: 35 57379 19
Width: 900
Flags: W
HStem: 419 67<247.167 376.582 528.382 656.289>
VStem: 97 67<186.688 331.945> 734 66<183.75 336.001>
LayerCount: 2
Fore
SplineSet
476 -168 m 0
 473 -172 464 -181 450 -181 c 0
 445 -181 433 -179 424 -168 c 0
 397 -135 385 -120 349 -83 c 0
 298 -30 289 -21 266 -3 c 0
 255 6 242 16 228 31 c 0
 218 41 209 50 200 59 c 0
 164 94 97 161 97 248 c 0
 97 250 98 252 98 254 c 0
 100 301 111 332 129 372 c 0
 134 382 140 393 149 403 c 1
 109 443 l 2
 103 449 100 458 100 467 c 0
 100 485 115 500 133 500 c 0
 142 500 151 497 157 491 c 2
 198 449 l 1
 213 459 228 467 247 474 c 0
 266 482 284 486 305 486 c 0
 330 486 359 481 387 468 c 0
 417 454 426 450 450 426 c 0
 450 426 475 450 499 461 c 0
 533 476 571 484 613 484 c 0
 630 484 656 478 693 456 c 0
 728 435 767 398 788 332 c 0
 795 311 800 291 800 264 c 0
 800 242 799 223 792 200 c 0
 781 164 768 141 749 111 c 0
 737 92 729 83 707 61 c 0
 696 50 686 42 677 35 c 0
 671 30 665 26 659 20 c 0
 653 14 648 10 643 5 c 1
 791 -143 l 2
 797 -149 800 -158 800 -167 c 0
 800 -185 785 -200 767 -200 c 0
 758 -200 749 -197 743 -191 c 2
 594 -41 l 1
 589 -46 582 -52 573 -61 c 0
 534 -99 517 -118 476 -168 c 0
475 354 m 2
 472 350 464 342 450 342 c 0
 440 342 430 347 424 355 c 2
 424 355 405 378 392 389 c 0
 384 396 384 396 359 408 c 0
 350 412 333 419 305 419 c 0
 294 419 287 418 271 412 c 0
 260 408 254 405 247 401 c 1
 595 52 l 1
 610 65 615 70 615 70 c 0
 634 87 643 93 659 109 c 0
 683 133 685 134 693 147 c 0
 712 177 719 190 728 220 c 0
 733 237 734 244 734 264 c 0
 734 281 731 290 723 314 c 0
 716 336 712 344 698 363 c 0
 683 382 680 385 659 398 c 0
 657 399 628 416 613 416 c 0
 579 416 551 410 527 399 c 0
 527 399 510 390 497 377 c 0
 489 369 475 354 475 354 c 2
197 356 m 1
 194 352 191 348 189 344 c 0
 175 315 164 290 164 248 c 0
 164 227 171 205 186 180 c 0
 206 147 223 131 248 106 c 0
 257 97 265 88 276 77 c 0
 298 53 315 47 342 20 c 0
 359 3 359 2 415 -56 c 0
 426 -67 439 -82 450 -95 c 1
 471 -70 484 -55 526 -14 c 0
 534 -6 541 1 546 6 c 1
 197 356 l 1
EndSplineSet
Validated: 1
EndChar

StartChar: uniE024
Encoding: 36 57380 20
Width: 900
HStem: -200 148<102.99 163.05 736.95 796.878> -200 66<166 251.05 304.95 418.876 481.124 594.876 654.95 734> 4 116<104.421 161.579 737.293 796.707> 176 120<105.695 160.305 736.95 797.05> 348 152<103.122 163.05 736.95 796.941> 434 66<166 254.876 305.124 424.876 482.95 598.876 652.95 734>
VStem: 100 158<-194.745 -139.255 437.293 497.515> 100 66<-134 -54.9501 5.12434 114.876 180.95 288.876 350.95 434> 302 120<-196.707 -137.293 437.293 496.707> 478 120<-196.707 -137.293 438.028 495.972> 652 148<-197.05 -136.95 436.028 497.375> 734 66<-134 -54.9501 6.95015 116.876 178.95 293.05 350.95 434>
LayerCount: 2
Fore
SplineSet
100 467 m 2x3ac0
 100 485 114 501 133 501 c 2
 224 501 l 2
 242 501 258 485 258 467 c 0x3ac0
 258 449 242 434 224 434 c 2
 166 434 l 1x35c0
 166 381 l 2
 166 363 151 348 133 348 c 0
 115 348 100 363 100 381 c 2x39c0
 100 467 l 2x3ac0
767 500 m 2
 786 500 801 485 801 467 c 2
 800 381 l 2
 800 363 785 348 767 348 c 0x38d0
 749 348 734 363 734 381 c 2
 734 434 l 1
 683 434 l 2
 665 434 650 449 650 467 c 0
 650 485 665 500 683 500 c 2x34d0
 767 500 l 2
800 -167 m 2xb0e0
 800 -185 786 -200 767 -200 c 2xb0e0
 685 -200 l 2
 667 -200 652 -185 652 -167 c 0x70e0
 652 -149 667 -134 685 -134 c 2
 734 -134 l 1x70d0
 734 -85 l 2
 734 -67 749 -52 767 -52 c 0
 785 -52 800 -67 800 -85 c 2xb0d0
 800 -167 l 2xb0e0
100 -85 m 2xb1c0
 100 -67 115 -52 133 -52 c 0xb1c0
 151 -52 166 -67 166 -85 c 2
 166 -134 l 1
 221 -134 l 2
 239 -134 254 -149 254 -167 c 0
 254 -185 239 -200 221 -200 c 0x71c0
 131 -200 131 -200 129 -200 c 0
 112 -198 100 -184 100 -167 c 0xb2c0
 100 -85 100 -85 100 -85 c 2xb1c0
336 434 m 2x34c0
 318 434 302 449 302 467 c 0
 302 485 318 500 336 500 c 2
 394 500 l 2
 412 500 428 485 428 467 c 0
 428 449 412 434 394 434 c 2
 336 434 l 2x34c0
513 434 m 2
 495 434 480 449 480 467 c 0
 480 485 495 500 513 500 c 2
 568 500 l 2
 586 500 602 485 602 467 c 0
 602 449 586 434 568 434 c 2
 513 434 l 2
734 263 m 2x30d0
 734 281 749 296 767 296 c 0
 785 296 800 281 800 263 c 2
 800 209 l 2
 800 191 785 176 767 176 c 0
 749 176 734 191 734 209 c 2
 734 263 l 2x30d0
734 86 m 2
 734 104 749 120 767 120 c 0
 785 120 800 104 800 86 c 2
 800 37 l 2
 800 19 785 4 767 4 c 0
 749 4 734 19 734 37 c 2
 734 86 l 2
564 -134 m 2x70c0
 582 -134 598 -149 598 -167 c 0
 598 -185 582 -200 564 -200 c 2
 512 -200 l 2
 494 -200 478 -185 478 -167 c 0
 478 -149 494 -134 512 -134 c 2
 564 -134 l 2x70c0
388 -134 m 2
 406 -134 422 -149 422 -167 c 0
 422 -185 406 -200 388 -200 c 2
 335 -200 l 2
 317 -200 302 -185 302 -167 c 0
 302 -149 317 -134 335 -134 c 2
 388 -134 l 2
166 36 m 2x31c0
 166 18 151 2 133 2 c 0
 115 2 100 18 100 36 c 2
 100 84 l 2
 100 102 115 118 133 118 c 0
 151 118 166 102 166 84 c 2
 166 36 l 2x31c0
166 211 m 2
 166 193 151 178 133 178 c 0
 115 178 100 193 100 211 c 2
 100 258 l 2
 100 276 115 292 133 292 c 0
 151 292 166 276 166 258 c 2
 166 211 l 2
EndSplineSet
Validated: 1
EndChar

StartChar: uniE025
Encoding: 37 57381 21
Width: 900
Flags: W
HStem: -200 66<346 418.876 481.124 594.876 654.95 734> 2 116<103.293 136.337 738.028 795.972> 178 114<103.293 162.707 763.663 797.972> 434 66<166 254.876 305.124 424.876 482.95 555>
VStem: 100 158<437.293 497.515> 100 66<48 114.876 180.95 288.876 350.95 434> 302 120<-196.707 -156.503 437.293 496.707> 478 120<-196.707 -137.293> 652 148<-197.05 -136.95> 734 66<-134 -54.9501 6.95015 116.876 178.95 264.678>
LayerCount: 2
Fore
SplineSet
727 356 m 1xf3
 714 374 686 401 660 419 c 0
 655 423 649 427 645 429 c 1
 630 415 605 390 574 360 c 1
 655 279 l 1
 686 312 712 340 727 356 c 1xf3
311 -77 m 1
 355 -36 473 86 609 230 c 1
 527 313 l 1
 416 204 267 58 217 4 c 2
 205 -8 l 1
 191 -40 181 -87 174 -123 c 1
 215 -113 272 -97 311 -77 c 1
100 467 m 2xfb
 100 485 114 501 133 501 c 2
 224 501 l 2
 242 501 258 485 258 467 c 0xfb
 258 449 242 434 224 434 c 2
 166 434 l 1
 166 381 l 2
 166 363 151 348 133 348 c 0
 115 348 100 363 100 381 c 2xf7
 100 467 l 2xfb
767 500 m 2
 786 500 801 485 801 467 c 2
 800 381 l 2
 800 376 799 372 797 368 c 0
 799 363 800 356 800 349 c 0
 800 340 797 332 791 326 c 0
 785 319 775 309 763 296 c 1
 764 296 765 296 767 296 c 0
 785 296 800 281 800 263 c 2
 800 209 l 2
 800 191 785 176 767 176 c 0
 749 176 734 191 734 209 c 2
 734 263 l 2
 734 264 734 264 734 265 c 1
 620 144 393 -95 354 -128 c 0
 352 -130 349 -132 346 -134 c 1
 388 -134 l 2
 406 -134 422 -149 422 -167 c 0
 422 -185 406 -200 388 -200 c 2
 335 -200 l 2
 317 -200 302 -185 302 -167 c 0
 302 -163 303 -159 304 -156 c 1
 287 -164 270 -172 253 -176 c 1
 249 -190 236 -200 221 -200 c 2
 133 -200 l 1
 129 -200 l 2
 112 -198 100 -184 100 -167 c 0
 100 -85 100 -85 100 -85 c 2
 100 -71 109 -59 121 -54 c 1
 126 -35 131 -16 137 2 c 1
 136 2 134 2 133 2 c 0
 115 2 100 18 100 36 c 2
 100 84 l 2
 100 102 115 118 133 118 c 0
 151 118 166 102 166 84 c 2
 166 48 l 1xf740
 194 78 254 138 347 230 c 0
 422 304 503 383 555 434 c 1
 513 434 l 2
 495 434 480 449 480 467 c 0
 480 485 495 500 513 500 c 2
 568 500 l 2
 582 500 595 491 600 478 c 1
 608 486 613 491 613 491 c 2
 619 497 627 500 636 500 c 0
 644 500 653 497 663 493 c 1
 669 497 676 500 683 500 c 2
 767 500 l 2
800 -167 m 2xf380
 800 -185 786 -200 767 -200 c 2
 685 -200 l 2
 667 -200 652 -185 652 -167 c 0xf380
 652 -149 667 -134 685 -134 c 2
 734 -134 l 1
 734 -85 l 2
 734 -67 749 -52 767 -52 c 0
 785 -52 800 -67 800 -85 c 2xf340
 800 -167 l 2xf380
336 434 m 2
 318 434 302 449 302 467 c 0
 302 485 318 500 336 500 c 2
 394 500 l 2
 412 500 428 485 428 467 c 0
 428 449 412 434 394 434 c 2
 336 434 l 2
734 86 m 2xf340
 734 104 749 120 767 120 c 0
 785 120 800 104 800 86 c 2
 800 37 l 2
 800 19 785 4 767 4 c 0
 749 4 734 19 734 37 c 2
 734 86 l 2xf340
564 -134 m 2
 582 -134 598 -149 598 -167 c 0
 598 -185 582 -200 564 -200 c 2
 512 -200 l 2
 494 -200 478 -185 478 -167 c 0
 478 -149 494 -134 512 -134 c 2
 564 -134 l 2
166 211 m 2xf7
 166 193 151 178 133 178 c 0
 115 178 100 193 100 211 c 2
 100 258 l 2
 100 276 115 292 133 292 c 0
 151 292 166 276 166 258 c 2
 166 211 l 2xf7
EndSplineSet
Validated: 1
EndChar
